<?xml version="1.0" encoding="UTF-8"?> <svg xmlns="http://www.w3.org/2000/svg" viewBox="0 0 425.47 497.08"><path d="m64.97 38.58h360v458h-360z" fill="#fff"></path><path d="m425.47 497.08h-361v-459h361zm-360-1h359v-457h-359z"></path><g fill="#6ea0f9"><path d="m64.97 97.74h360v.93h-360z"></path><path d="m64.97 114.74h360v.93h-360z"></path><path d="m64.97 131.74h360v.93h-360z"></path><path d="m64.97 148.74h360v.93h-360z"></path><path d="m64.97 165.74h360v.93h-360z"></path><path d="m64.97 182.74h360v.93h-360z"></path><path d="m64.97 199.74h360v.93h-360z"></path><path d="m64.97 216.74h360v.93h-360z"></path><path d="m64.97 233.74h360v.93h-360z"></path><path d="m64.97 250.74h360v.93h-360z"></path><path d="m64.97 267.74h360v.93h-360z"></path><path d="m64.97 284.74h360v.93h-360z"></path><path d="m64.97 301.74h360v.93h-360z"></path><path d="m64.97 318.74h360v.93h-360z"></path><path d="m64.97 335.74h360v.93h-360z"></path><path d="m64.97 352.74h360v.93h-360z"></path><path d="m64.97 369.74h360v.93h-360z"></path><path d="m64.97 386.74h360v.93h-360z"></path><path d="m64.97 403.74h360v.93h-360z"></path><path d="m64.97 420.74h360v.93h-360z"></path><path d="m64.97 437.74h360v.93h-360z"></path><path d="m64.97 454.74h360v.93h-360z"></path></g><path d="m64.97 80.74h360v.93h-360z" fill="#f7625e"></path><path d="m64.97 471.74h360v.93h-360z" fill="#6ea0f9"></path><path d="m64.97 488.74h360v.93h-360z" fill="#6ea0f9"></path><path d="m64.97 38.58h110.99v382.16h-110.99z" fill="#a4d53f" opacity=".5"></path><path d="m64.97 421.2h360v75.37h-360z" fill="#facd00" opacity=".5"></path><path d="m424.97 22.19-11.67-6.28 2.39 4.9h-341.44l2.39-4.9-11.67 6.28 11.67 6.28-2.39-4.89h341.44l-2.39 4.89z"></path><path d="m48.03 38.58-6.28 11.67 4.89-2.4v439.45l-4.89-2.39 6.28 11.67 6.28-11.67-4.9 2.39v-439.45l4.9 2.4z"></path><path d="m424.97 70.19-11.67-6.28 2.39 4.9h-230.45l2.39-4.9-11.67 6.28 11.67 6.28-2.39-4.89h230.45l-2.39 4.89z"></path><path d="m175.96 70.19-11.67-6.28 2.39 4.9h-92.43l2.39-4.9-11.67 6.28 11.67 6.28-2.39-4.89h92.43l-2.39 4.89z"></path><path d="m103.19 421.2-6.28 11.67 4.89-2.39v56.82l-4.89-2.39 6.28 11.67 6.28-11.67-4.9 2.39v-56.82l4.9 2.39z"></path><path d="m226.15 4.1c0-.69.13-1.28.39-1.8.26-.51.62-.94 1.07-1.28.46-.34.98-.6 1.59-.77.6-.17 1.25-.25 1.93-.25s1.33.08 1.93.25 1.13.42 1.57.77c.45.34.81.77 1.07 1.28s.4 1.11.4 1.8c0 .81-.22 1.5-.66 2.08-.44.57-1.06.98-1.86 1.22v.04c.9.24 1.58.67 2.06 1.29s.71 1.4.71 2.32c0 .71-.14 1.34-.43 1.89s-.67 1-1.16 1.35c-.48.36-1.04.63-1.67.81s-1.29.27-1.97.27-1.34-.09-1.97-.27-1.19-.45-1.67-.81-.87-.81-1.15-1.35c-.29-.55-.43-1.18-.43-1.89 0-.92.24-1.7.71-2.32.48-.62 1.16-1.05 2.06-1.29v-.04c-.8-.24-1.42-.64-1.86-1.22-.44-.57-.66-1.27-.66-2.08zm2.9 6.5c0 .52.19.96.57 1.32s.88.55 1.51.55 1.13-.18 1.51-.55c.38-.36.57-.81.57-1.32s-.19-.98-.57-1.34-.88-.55-1.51-.55-1.13.18-1.51.55c-.38.36-.57.81-.57 1.34zm.25-6.06c0 .46.17.85.5 1.18.34.32.78.48 1.32.48s.99-.16 1.32-.48c.34-.32.5-.71.5-1.18s-.17-.83-.5-1.15c-.34-.32-.78-.48-1.32-.48s-.99.16-1.32.48c-.34.32-.5.71-.5 1.15z"></path><path d="m238.52 13.31c0-.27.05-.52.15-.76s.23-.44.41-.62c.17-.17.38-.31.62-.41s.49-.15.76-.15.52.05.76.15.44.23.62.41c.17.18.31.38.41.62s.15.49.15.76-.05.52-.15.76-.23.44-.41.62c-.17.18-.38.31-.62.41s-.49.15-.76.15-.52-.05-.76-.15-.44-.23-.62-.41c-.17-.17-.31-.38-.41-.62s-.15-.49-.15-.76z"></path><path d="m254.42 3.02h-5.9l-.06 2.29c.32-.11.76-.17 1.32-.17.76 0 1.45.11 2.08.34.63.22 1.17.55 1.63.98.45.43.81.95 1.06 1.55s.38 1.29.38 2.05c0 .84-.14 1.59-.43 2.25s-.68 1.21-1.19 1.67c-.5.46-1.1.8-1.8 1.04-.69.24-1.45.36-2.26.36-1.29 0-2.37-.31-3.23-.94-.87-.63-1.46-1.58-1.79-2.86l3.3-.76c.08.53.31.96.67 1.29s.82.49 1.37.49c.67 0 1.21-.21 1.61-.63s.6-.95.6-1.6c0-.49-.1-.89-.3-1.21s-.47-.57-.8-.76-.7-.32-1.1-.39c-.41-.07-.81-.1-1.22-.1-.52 0-1.04.05-1.56.15-.53.1-1.03.23-1.52.4l.17-8.21h8.99v2.77z"></path><path d="m259.6 6.17h-2.69l1.55-5.92h3.02l-1.89 5.92zm4.5 0h-2.69l1.55-5.92h3.02l-1.89 5.92z"></path><path d="m4.77 251.15-2.98 2.62-1.79-2.06 4.85-4.09h2.94v14.87h-3.02z"></path><path d="m17.2 251.15-2.98 2.62-1.79-2.06 4.85-4.09h2.94v14.87h-3.02z"></path><path d="m27.2 253.54h-2.69l1.55-5.92h3.02l-1.89 5.92zm4.49 0h-2.69l1.55-5.92h3.02l-1.89 5.92z"></path><path d="m294.95 54.36c.17-.04.34-.08.5-.1.17-.03.34-.04.52-.04.7 0 1.34.13 1.91.38s1.06.6 1.47 1.03.72.95.95 1.54c.22.6.34 1.23.34 1.9 0 .77-.14 1.47-.43 2.09s-.68 1.16-1.18 1.61-1.08.79-1.76 1.04-1.4.37-2.17.37-1.51-.12-2.18-.37c-.67-.24-1.26-.59-1.75-1.04s-.89-.98-1.18-1.61c-.29-.62-.43-1.32-.43-2.09 0-.53.05-1.02.15-1.46s.23-.86.39-1.25.35-.77.57-1.12.44-.72.68-1.1l3.25-5.08h3.84l-3.49 5.31zm2.54 4.58c0-.67-.22-1.23-.66-1.67s-1.02-.66-1.73-.66-1.29.22-1.73.66-.66 1-.66 1.67.22 1.23.66 1.67 1.02.66 1.73.66 1.29-.22 1.73-.66.66-1 .66-1.67z"></path><path d="m304.97 54.97h-2.69l1.55-5.92h3.02l-1.89 5.92zm4.49 0h-2.69l1.55-5.92h3.02l-1.89 5.92z"></path><path d="m104.14 60.57 5.77-5.19c.29-.27.59-.57.88-.9.29-.34.44-.73.44-1.18 0-.5-.18-.9-.55-1.19-.36-.29-.79-.43-1.28-.43-.59 0-1.05.18-1.38.55-.33.36-.51.81-.56 1.34l-3.15-.23c.04-.77.2-1.44.48-2.01s.65-1.04 1.11-1.42 1-.66 1.63-.85 1.3-.28 2.03-.28c.67 0 1.3.09 1.89.28s1.1.47 1.53.84.77.84 1.02 1.4.37 1.21.37 1.95c0 .48-.05.91-.15 1.29-.1.39-.23.73-.41 1.05-.18.31-.38.61-.62.87-.24.27-.5.52-.78.78l-4.52 3.89h6.59v2.77h-10.37v-3.34z"></path><path d="m116.72 62.11c0-.27.05-.52.15-.76s.23-.44.41-.62c.17-.17.38-.31.62-.41s.49-.15.76-.15.52.05.76.15.44.23.62.41c.17.18.31.38.41.62s.15.49.15.76-.05.52-.15.76-.23.44-.41.62c-.17.18-.38.31-.62.41s-.49.15-.76.15-.52-.05-.76-.15-.44-.23-.62-.41c-.17-.17-.31-.38-.41-.62s-.15-.49-.15-.76z"></path><path d="m132.62 51.82h-5.9l-.06 2.29c.32-.11.76-.17 1.32-.17.76 0 1.45.11 2.08.34.63.22 1.17.55 1.63.98.45.43.81.95 1.06 1.55s.38 1.29.38 2.05c0 .84-.14 1.59-.43 2.25s-.68 1.21-1.19 1.67c-.5.46-1.1.8-1.8 1.04-.69.24-1.45.36-2.26.36-1.29 0-2.37-.31-3.23-.94-.87-.63-1.46-1.58-1.79-2.86l3.3-.76c.08.53.31.96.67 1.29s.82.49 1.37.49c.67 0 1.21-.21 1.61-.63s.6-.95.6-1.6c0-.49-.1-.89-.3-1.21s-.47-.57-.8-.76-.7-.32-1.1-.39c-.41-.07-.81-.1-1.22-.1-.52 0-1.04.05-1.56.15-.53.1-1.03.23-1.52.4l.17-8.21h8.99v2.77z"></path><path d="m137.8 54.97h-2.69l1.55-5.92h3.02l-1.89 5.92zm4.5 0h-2.69l1.55-5.92h3.02l-1.89 5.92z"></path><path d="m72.14 464.81 5.77-5.19c.29-.27.59-.57.88-.9.29-.34.44-.73.44-1.18 0-.5-.18-.9-.55-1.19-.36-.29-.79-.43-1.28-.43-.59 0-1.05.18-1.38.55-.33.36-.51.81-.56 1.34l-3.15-.23c.04-.77.2-1.44.48-2 .28-.57.65-1.04 1.11-1.42s1-.66 1.63-.85c.62-.19 1.3-.28 2.03-.28.67 0 1.3.09 1.89.28s1.1.47 1.53.84.77.84 1.02 1.4.37 1.21.37 1.95c0 .48-.05.91-.15 1.29s-.23.73-.41 1.05c-.18.31-.38.61-.62.87-.24.27-.5.53-.78.78l-4.52 3.88h6.59v2.77h-10.37v-3.34z"></path><path d="m87.15 459.2h-2.69l1.55-5.92h3.02l-1.89 5.92zm4.5 0h-2.69l1.55-5.92h3.02l-1.89 5.92z"></path><path d="m200.64 198.33h3.28l10.14 15.13h.05v-15.13h2.5v18.41h-3.17l-10.24-15.13h-.05v15.13h-2.5v-18.41z"></path><path d="m220.14 210.58c0-.9.17-1.74.51-2.52s.8-1.46 1.39-2.05 1.28-1.05 2.08-1.39 1.65-.51 2.57-.51 1.78.17 2.57.51c.8.34 1.49.8 2.08 1.39s1.05 1.27 1.39 2.05.51 1.62.51 2.52-.17 1.75-.51 2.54-.8 1.47-1.39 2.05-1.28 1.04-2.08 1.38-1.66.51-2.57.51-1.78-.17-2.57-.51c-.8-.34-1.49-.8-2.08-1.38s-1.05-1.26-1.39-2.05-.51-1.63-.51-2.54zm2.5 0c0 .62.09 1.2.29 1.73.19.53.46.98.81 1.35s.77.67 1.27.88c.5.22 1.07.32 1.69.32s1.19-.11 1.69-.32c.5-.22.93-.51 1.27-.88.35-.37.62-.82.81-1.35s.29-1.1.29-1.73-.1-1.2-.29-1.73-.46-.98-.81-1.35-.77-.67-1.27-.88c-.5-.22-1.07-.33-1.69-.33s-1.19.11-1.69.33-.93.51-1.27.88c-.35.37-.62.82-.81 1.35s-.29 1.1-.29 1.73z"></path><path d="m242.79 206.44h-3.35v5.59c0 .35 0 .69.03 1.03.02.34.08.64.2.91.11.27.29.49.52.65.23.17.58.25 1.03.25.28 0 .56-.03.86-.08.29-.05.56-.15.81-.29v2.13c-.28.16-.64.26-1.08.33-.44.06-.78.09-1.03.09-.9 0-1.6-.13-2.09-.38s-.86-.58-1.09-.98-.37-.84-.42-1.34c-.04-.49-.07-.99-.07-1.5v-6.42h-2.7v-2.03h2.7v-3.46h2.34v3.46h3.35v2.03z"></path><path d="m247.57 211.43c0 .54.12 1.03.35 1.47s.54.82.92 1.13.82.56 1.33.73c.5.17 1.02.26 1.56.26.73 0 1.36-.17 1.9-.51s1.03-.78 1.48-1.34l1.77 1.35c-1.3 1.68-3.12 2.52-5.46 2.52-.97 0-1.85-.17-2.64-.49-.79-.33-1.46-.78-2-1.36-.55-.58-.97-1.27-1.26-2.05-.29-.79-.44-1.64-.44-2.56s.16-1.77.48-2.56.76-1.47 1.33-2.05 1.24-1.04 2.02-1.37 1.63-.49 2.55-.49c1.09 0 2.01.19 2.77.57.75.38 1.37.88 1.86 1.5s.84 1.31 1.05 2.08c.22.77.33 1.56.33 2.35v.83h-9.88zm7.39-1.87c-.02-.52-.1-1-.25-1.43s-.37-.81-.66-1.13-.66-.57-1.1-.75-.96-.27-1.55-.27-1.1.11-1.57.33c-.48.22-.88.5-1.21.84-.33.35-.58.73-.77 1.16-.18.42-.27.85-.27 1.26h7.38z"></path><path d="m265.8 211.54h-6.4v-2.18h6.4z"></path><path d="m275.08 206.44h-3.35v5.59c0 .35 0 .69.03 1.03.02.34.08.64.2.91.11.27.29.49.52.65.23.17.58.25 1.03.25.28 0 .56-.03.86-.08.29-.05.56-.15.81-.29v2.13c-.28.16-.64.26-1.08.33-.44.06-.78.09-1.03.09-.9 0-1.6-.13-2.09-.38s-.86-.58-1.09-.98-.37-.84-.42-1.34c-.04-.49-.07-.99-.07-1.5v-6.42h-2.7v-2.03h2.7v-3.46h2.34v3.46h3.35v2.03z"></path><path d="m278.15 205.92c.66-.61 1.42-1.06 2.29-1.37.87-.3 1.73-.46 2.6-.46s1.68.11 2.33.34 1.18.53 1.6.91.72.82.92 1.31.3 1.01.3 1.55v6.29c0 .43 0 .83.03 1.2.02.36.04.71.08 1.04h-2.08c-.05-.62-.08-1.25-.08-1.87h-.05c-.52.8-1.14 1.36-1.85 1.69s-1.53.49-2.47.49c-.57 0-1.12-.08-1.64-.23-.52-.16-.97-.39-1.37-.7-.39-.31-.7-.7-.92-1.16s-.34-.99-.34-1.6c0-.8.18-1.46.53-2s.84-.98 1.46-1.31c.62-.34 1.33-.58 2.16-.73.82-.15 1.7-.22 2.64-.22h1.72v-.52c0-.31-.06-.62-.18-.94-.12-.31-.3-.59-.55-.84-.24-.25-.55-.45-.91-.6s-.8-.22-1.3-.22c-.45 0-.85.04-1.18.13s-.65.19-.92.32-.53.28-.75.46c-.23.17-.44.34-.65.49l-1.4-1.46zm6.6 4.89c-.55 0-1.12.03-1.7.09s-1.11.18-1.59.35-.87.42-1.17.73-.46.71-.46 1.2c0 .71.24 1.22.71 1.53s1.12.47 1.94.47c.64 0 1.19-.11 1.64-.32s.81-.5 1.09-.85.48-.73.6-1.16c.12-.42.18-.84.18-1.26v-.78h-1.25z"></path><path d="m291.59 197.08h2.34v12.69l5.3-5.33h3.25l-5.75 5.59 6.24 6.71h-3.33l-5.72-6.4v6.4h-2.34v-19.66z"></path><path d="m304.72 199.99c0-.47.17-.87.51-1.21s.74-.51 1.21-.51.87.17 1.21.51.51.74.51 1.21-.17.87-.51 1.21-.74.51-1.21.51-.87-.17-1.21-.51-.51-.74-.51-1.21zm.55 4.42h2.34v12.32h-2.34z"></path><path d="m311.32 204.41h2.34v1.9h.05c.29-.66.81-1.19 1.53-1.6.73-.41 1.57-.61 2.52-.61.59 0 1.16.09 1.7.27.55.18 1.02.46 1.43.84s.73.87.98 1.47c.24.6.36 1.3.36 2.12v7.93h-2.34v-7.28c0-.57-.08-1.06-.23-1.47-.16-.41-.36-.74-.62-.99s-.56-.43-.9-.55c-.34-.11-.69-.17-1.05-.17-.49 0-.94.08-1.35.23-.42.16-.78.4-1.09.74s-.55.77-.73 1.29c-.17.52-.26 1.14-.26 1.85v6.34h-2.34v-12.32z"></path><path d="m338.13 216.63c0 .94-.16 1.79-.48 2.56s-.78 1.44-1.36 2c-.59.56-1.3 1-2.13 1.31s-1.75.47-2.76.47c-1.18 0-2.26-.17-3.24-.49-.98-.33-1.91-.9-2.8-1.72l1.59-1.98c.61.66 1.26 1.16 1.98 1.49.71.34 1.52.51 2.42.51s1.59-.13 2.16-.38 1.03-.58 1.37-.98.58-.85.71-1.37c.14-.51.21-1.03.21-1.55v-1.82h-.08c-.45.75-1.06 1.3-1.83 1.65-.77.36-1.58.53-2.43.53-.9 0-1.74-.16-2.51-.48s-1.43-.76-1.99-1.33c-.56-.56-.99-1.23-1.3-2s-.47-1.61-.47-2.51.15-1.75.44-2.53c.29-.79.71-1.48 1.26-2.07s1.2-1.05 1.98-1.38c.77-.33 1.63-.49 2.59-.49.83 0 1.64.18 2.43.55.79.36 1.41.88 1.86 1.53h.05v-1.77h2.34v12.22zm-6.4-10.34c-.62 0-1.19.11-1.69.33s-.93.51-1.27.88c-.35.37-.62.82-.81 1.35s-.29 1.1-.29 1.73c0 1.25.36 2.25 1.09 3s1.72 1.13 2.96 1.13 2.24-.38 2.96-1.13c.73-.75 1.09-1.75 1.09-3 0-.62-.1-1.2-.29-1.73s-.46-.98-.81-1.35-.77-.67-1.27-.88c-.5-.22-1.07-.33-1.69-.33z"></path><path d="m355.26 198.33h2.26l7.88 18.41h-2.91l-1.85-4.55h-8.76l-1.82 4.55h-2.91zm4.48 11.67-3.43-8.45h-.05l-3.48 8.45h6.97z"></path><path d="m367.2 204.41h2.34v1.9h.05c.16-.33.36-.63.62-.9s.55-.5.87-.69.67-.34 1.05-.45.76-.17 1.14-.17.73.05 1.04.16l-.1 2.52c-.19-.05-.38-.1-.57-.13s-.38-.05-.57-.05c-1.14 0-2.02.32-2.63.96s-.91 1.64-.91 2.99v6.19h-2.34v-12.32z"></path><path d="m378.12 211.43c0 .54.12 1.03.35 1.47s.54.82.92 1.13.82.56 1.33.73c.5.17 1.02.26 1.56.26.73 0 1.36-.17 1.9-.51s1.03-.78 1.48-1.34l1.77 1.35c-1.3 1.68-3.12 2.52-5.46 2.52-.97 0-1.85-.17-2.64-.49-.79-.33-1.46-.78-2-1.36-.55-.58-.97-1.27-1.26-2.05-.29-.79-.44-1.64-.44-2.56s.16-1.77.48-2.56.76-1.47 1.33-2.05 1.24-1.04 2.02-1.37 1.63-.49 2.55-.49c1.09 0 2.01.19 2.77.57.75.38 1.37.88 1.86 1.5s.84 1.31 1.05 2.08c.22.77.33 1.56.33 2.35v.83h-9.88zm7.38-1.87c-.02-.52-.1-1-.25-1.43s-.37-.81-.66-1.13-.66-.57-1.1-.75-.96-.27-1.55-.27-1.1.11-1.57.33c-.48.22-.88.5-1.21.84-.33.35-.58.73-.77 1.16-.18.42-.27.85-.27 1.26h7.38z"></path><path d="m390.86 205.92c.66-.61 1.42-1.06 2.29-1.37.87-.3 1.73-.46 2.6-.46s1.68.11 2.33.34 1.18.53 1.6.91.72.82.92 1.31.3 1.01.3 1.55v6.29c0 .43 0 .83.03 1.2.02.36.04.71.08 1.04h-2.08c-.05-.62-.08-1.25-.08-1.87h-.05c-.52.8-1.14 1.36-1.85 1.69s-1.53.49-2.47.49c-.57 0-1.12-.08-1.64-.23-.52-.16-.97-.39-1.37-.7-.39-.31-.7-.7-.92-1.16s-.34-.99-.34-1.6c0-.8.18-1.46.53-2s.84-.98 1.46-1.31c.62-.34 1.33-.58 2.16-.73.82-.15 1.7-.22 2.64-.22h1.72v-.52c0-.31-.06-.62-.18-.94-.12-.31-.3-.59-.55-.84-.24-.25-.55-.45-.91-.6s-.8-.22-1.3-.22c-.45 0-.85.04-1.18.13s-.65.19-.92.32-.53.28-.75.46c-.23.17-.44.34-.65.49l-1.4-1.46zm6.6 4.89c-.55 0-1.12.03-1.7.09s-1.11.18-1.59.35-.87.42-1.17.73-.46.71-.46 1.2c0 .71.24 1.22.71 1.53s1.12.47 1.94.47c.64 0 1.19-.11 1.64-.32s.81-.5 1.09-.85.48-.73.6-1.16c.12-.42.18-.84.18-1.26v-.78h-1.25z"></path><path d="m211.6 464.3c.45.68 1.03 1.17 1.73 1.5.7.32 1.43.48 2.17.48.42 0 .84-.06 1.27-.19s.83-.33 1.18-.58c.36-.26.65-.58.87-.96.23-.38.34-.82.34-1.33 0-.71-.23-1.25-.68-1.62s-1.01-.68-1.68-.94c-.67-.25-1.4-.49-2.18-.73-.79-.23-1.52-.56-2.18-.98s-1.23-.97-1.68-1.68c-.45-.7-.68-1.65-.68-2.85 0-.54.12-1.11.35-1.72s.6-1.16 1.11-1.66c.5-.5 1.15-.92 1.94-1.26s1.74-.51 2.85-.51c1.01 0 1.97.14 2.89.42s1.72.84 2.42 1.69l-2.03 1.85c-.31-.49-.75-.88-1.33-1.17-.57-.29-1.22-.44-1.95-.44s-1.27.09-1.73.27-.83.42-1.11.7-.47.59-.58.92-.17.63-.17.91c0 .78.23 1.38.68 1.79.45.42 1.01.75 1.68 1.01s1.39.49 2.18.7 1.52.5 2.19.87 1.23.88 1.68 1.51.68 1.5.68 2.61c0 .88-.17 1.68-.51 2.39s-.79 1.31-1.37 1.79c-.57.49-1.25.86-2.03 1.12s-1.61.39-2.5.39c-1.18 0-2.3-.21-3.35-.62-1.06-.42-1.9-1.06-2.52-1.92l2.05-1.77z"></path><path d="m235.84 468.15h-2.34v-1.9h-.05c-.29.66-.81 1.19-1.53 1.6-.73.41-1.57.61-2.52.61-.61 0-1.18-.09-1.72-.27s-1.01-.46-1.42-.84-.73-.87-.98-1.47c-.24-.6-.36-1.3-.36-2.12v-7.93h2.34v7.28c0 .57.08 1.06.23 1.47.16.41.36.74.62.99s.56.43.9.55c.34.11.69.17 1.05.17.49 0 .94-.08 1.35-.23.42-.16.78-.4 1.09-.74s.55-.77.73-1.29c.17-.52.26-1.13.26-1.85v-6.34h2.34v12.32z"></path><path d="m239.37 455.83h2.18v1.92h.05c.05-.17.19-.39.4-.65.22-.26.49-.51.83-.74s.74-.43 1.2-.6.97-.25 1.52-.25c.92 0 1.69.19 2.31.57s1.14.95 1.53 1.72c.4-.76.96-1.33 1.69-1.72.73-.38 1.46-.57 2.21-.57.95 0 1.73.16 2.34.47s1.08.72 1.43 1.24c.35.51.58 1.09.72 1.74.13.65.19 1.32.19 2.01v7.18h-2.34v-6.86c0-.47-.03-.92-.09-1.35s-.19-.81-.38-1.14-.46-.59-.81-.79-.81-.3-1.38-.3c-1.13 0-1.93.35-2.42 1.04s-.73 1.59-.73 2.68v6.73h-2.34v-6.45c0-.59-.03-1.13-.09-1.61-.06-.49-.18-.91-.36-1.26-.18-.36-.44-.63-.78-.83s-.79-.3-1.37-.3c-.42 0-.82.08-1.21.25s-.73.41-1.03.74c-.29.33-.53.75-.7 1.26s-.26 1.11-.26 1.81v6.4h-2.34v-12.32z"></path><path d="m261.52 455.83h2.18v1.92h.05c.05-.17.19-.39.4-.65.22-.26.49-.51.83-.74s.74-.43 1.2-.6.97-.25 1.52-.25c.92 0 1.69.19 2.31.57s1.14.95 1.53 1.72c.4-.76.96-1.33 1.69-1.72.73-.38 1.46-.57 2.21-.57.95 0 1.73.16 2.34.47s1.08.72 1.43 1.24c.35.51.58 1.09.72 1.74.13.65.19 1.32.19 2.01v7.18h-2.34v-6.86c0-.47-.03-.92-.09-1.35s-.19-.81-.38-1.14-.46-.59-.81-.79-.81-.3-1.38-.3c-1.13 0-1.93.35-2.42 1.04s-.73 1.59-.73 2.68v6.73h-2.34v-6.45c0-.59-.03-1.13-.09-1.61-.06-.49-.18-.91-.36-1.26-.18-.36-.44-.63-.78-.83s-.79-.3-1.37-.3c-.42 0-.82.08-1.21.25s-.73.41-1.03.74c-.29.33-.53.75-.7 1.26s-.26 1.11-.26 1.81v6.4h-2.34v-12.32z"></path><path d="m283.73 457.33c.66-.61 1.42-1.06 2.29-1.37.87-.3 1.73-.46 2.6-.46s1.68.11 2.33.34 1.18.53 1.6.91.72.82.92 1.31.3 1.01.3 1.55v6.29c0 .43 0 .83.03 1.2.02.36.04.71.08 1.04h-2.08c-.05-.62-.08-1.25-.08-1.87h-.05c-.52.8-1.14 1.36-1.85 1.69s-1.53.49-2.47.49c-.57 0-1.12-.08-1.64-.23-.52-.16-.97-.39-1.37-.7-.39-.31-.7-.7-.92-1.16-.23-.46-.34-.99-.34-1.6 0-.8.18-1.46.53-2s.84-.97 1.46-1.31 1.33-.58 2.16-.73c.82-.15 1.7-.22 2.64-.22h1.72v-.52c0-.31-.06-.62-.18-.94-.12-.31-.3-.59-.55-.84-.24-.25-.55-.45-.91-.6s-.8-.22-1.3-.22c-.45 0-.85.04-1.18.13s-.65.2-.92.33-.53.28-.75.46c-.23.17-.44.34-.65.49l-1.4-1.46zm6.6 4.89c-.55 0-1.12.03-1.7.09s-1.11.18-1.59.35-.87.42-1.17.73-.46.71-.46 1.2c0 .71.24 1.22.71 1.53.48.31 1.12.47 1.94.47.64 0 1.19-.11 1.64-.33s.81-.5 1.09-.84.48-.73.6-1.16c.12-.42.18-.84.18-1.26v-.78h-1.25z"></path><path d="m297.17 455.83h2.34v1.9h.05c.16-.33.36-.63.62-.9s.55-.5.87-.69.67-.34 1.05-.46c.38-.11.76-.17 1.14-.17s.73.05 1.04.16l-.1 2.52c-.19-.05-.38-.09-.57-.13-.19-.03-.38-.05-.57-.05-1.14 0-2.02.32-2.63.96s-.91 1.64-.91 2.99v6.19h-2.34v-12.32z"></path><path d="m306.43 451.41c0-.47.17-.87.51-1.21s.74-.51 1.21-.51.87.17 1.21.51.51.74.51 1.21-.17.87-.51 1.21-.74.51-1.21.51-.87-.17-1.21-.51-.51-.74-.51-1.21zm.54 4.42h2.34v12.32h-2.34z"></path><path d="m314.8 462.85c0 .54.12 1.03.35 1.47s.54.82.92 1.13.82.56 1.33.73 1.02.26 1.56.26c.73 0 1.36-.17 1.9-.51s1.03-.78 1.48-1.34l1.77 1.35c-1.3 1.68-3.12 2.52-5.46 2.52-.97 0-1.85-.17-2.64-.49-.79-.33-1.46-.78-2-1.37-.55-.58-.97-1.26-1.26-2.05s-.44-1.64-.44-2.56.16-1.77.48-2.56.76-1.47 1.33-2.05c.56-.58 1.24-1.04 2.02-1.37s1.63-.49 2.55-.49c1.09 0 2.01.19 2.77.57s1.37.88 1.86 1.5.84 1.31 1.05 2.08c.22.77.33 1.56.33 2.35v.83h-9.88zm7.38-1.88c-.02-.52-.1-1-.25-1.43s-.37-.81-.66-1.13-.66-.57-1.1-.75-.96-.27-1.55-.27-1.1.11-1.57.33c-.48.22-.88.5-1.21.84-.33.35-.58.73-.77 1.16-.18.42-.27.84-.27 1.26h7.38z"></path><path d="m334.04 458.92c-.28-.35-.62-.64-1.03-.87s-.91-.35-1.5-.35c-.55 0-1.04.12-1.44.35-.41.23-.61.58-.61 1.03 0 .36.12.66.35.88.23.23.51.41.83.55s.66.24 1.03.31c.36.07.68.13.94.18.5.12.98.27 1.42.44s.82.4 1.14.68.57.62.75 1.01.27.88.27 1.46c0 .69-.15 1.29-.44 1.78s-.68.9-1.14 1.21c-.47.31-1 .54-1.6.68s-1.2.21-1.81.21c-1.02 0-1.92-.16-2.69-.47s-1.46-.88-2.07-1.72l1.77-1.46c.38.38.81.72 1.27 1.01.47.29 1.04.44 1.72.44.29 0 .59-.03.9-.09.3-.06.57-.16.81-.29.23-.13.42-.29.57-.49s.22-.43.22-.69c0-.35-.11-.63-.33-.86-.22-.22-.48-.4-.78-.53s-.62-.23-.96-.31-.64-.14-.9-.2c-.5-.12-.98-.26-1.43-.42s-.85-.36-1.2-.62-.62-.59-.83-.99-.31-.89-.31-1.48c0-.64.13-1.2.4-1.68s.62-.87 1.07-1.18c.44-.31.94-.55 1.51-.7.56-.16 1.13-.23 1.7-.23.83 0 1.63.16 2.39.47s1.37.83 1.82 1.56l-1.82 1.38z"></path><path d="m109.7 315c-.68.52-1.2 1.18-1.56 1.98s-.55 1.62-.55 2.47c0 1.04.2 1.98.58 2.82.39.84.92 1.56 1.6 2.16s1.47 1.06 2.38 1.39 1.89.49 2.93.49c.97 0 1.89-.16 2.76-.47s1.63-.76 2.29-1.35 1.18-1.31 1.56-2.16.57-1.81.57-2.89-.22-1.98-.65-2.78-1.04-1.47-1.82-2.03l1.59-2.11c.19.14.46.38.82.73s.71.81 1.07 1.38.67 1.26.94 2.07.4 1.74.4 2.8c0 1.46-.28 2.77-.83 3.94s-1.28 2.17-2.18 2.99-1.92 1.45-3.06 1.88-2.28.65-3.44.65c-1.42 0-2.73-.23-3.94-.7s-2.24-1.12-3.12-1.96-1.56-1.85-2.04-3.03-.73-2.48-.73-3.9c0-1.21.23-2.4.7-3.57s1.19-2.13 2.16-2.87l1.59 2.08z"></path><path d="m124.13 299.2v2.34h-1.9v.05c.66.29 1.19.81 1.6 1.53.41.73.61 1.57.61 2.52 0 .61-.09 1.18-.27 1.72s-.46 1.01-.85 1.42c-.38.41-.87.73-1.47.98s-1.3.36-2.12.36h-7.93v-2.34h7.28c.57 0 1.06-.08 1.47-.23.41-.16.74-.36.99-.62s.43-.56.55-.9c.11-.34.17-.69.17-1.05 0-.49-.08-.94-.23-1.35-.16-.42-.4-.78-.74-1.09s-.77-.55-1.29-.73c-.52-.17-1.14-.26-1.85-.26h-6.34v-2.34h12.32z"></path><path d="m118.83 293.89c.54 0 1.03-.12 1.47-.35s.82-.54 1.13-.92.56-.82.73-1.33c.17-.5.26-1.02.26-1.56 0-.73-.17-1.36-.51-1.9s-.78-1.03-1.34-1.48l1.35-1.77c1.68 1.3 2.52 3.12 2.52 5.46 0 .97-.17 1.85-.49 2.64-.33.79-.78 1.46-1.36 2-.58.55-1.27.97-2.05 1.26-.79.29-1.64.44-2.56.44s-1.77-.16-2.56-.48-1.47-.76-2.05-1.33-1.04-1.24-1.37-2.02-.49-1.63-.49-2.55c0-1.09.19-2.01.57-2.77.38-.75.88-1.37 1.5-1.86s1.31-.84 2.08-1.05c.77-.22 1.56-.33 2.35-.33h.83v9.88zm-1.88-7.38c-.52.02-1 .1-1.43.25s-.81.37-1.13.66-.57.66-.75 1.1-.27.96-.27 1.55.11 1.1.33 1.57c.22.48.5.88.84 1.21.35.33.73.58 1.16.77.42.18.85.27 1.26.27v-7.38z"></path><path d="m114.9 274.65c-.35.28-.64.62-.87 1.03s-.35.91-.35 1.5c0 .55.12 1.04.35 1.44.23.41.58.61 1.03.61.36 0 .66-.12.88-.35.23-.23.41-.51.55-.83s.24-.66.31-1.03c.07-.36.13-.68.18-.94.12-.5.27-.98.44-1.42s.4-.82.68-1.14.62-.57 1.01-.75c.4-.18.88-.27 1.46-.27.69 0 1.29.15 1.78.44s.9.68 1.21 1.14c.31.47.54 1 .68 1.6s.21 1.2.21 1.81c0 1.02-.16 1.92-.47 2.69s-.88 1.46-1.72 2.07l-1.46-1.77c.38-.38.72-.81 1.01-1.27.29-.47.44-1.04.44-1.72 0-.29-.03-.59-.09-.9-.06-.3-.16-.57-.29-.81-.13-.23-.29-.42-.49-.57s-.43-.22-.69-.22c-.35 0-.63.11-.86.33s-.4.48-.53.78-.23.62-.31.96-.14.64-.2.9c-.12.5-.26.98-.42 1.43s-.36.85-.62 1.2-.59.62-.99.83-.89.31-1.48.31c-.64 0-1.2-.13-1.68-.4s-.87-.62-1.18-1.07c-.31-.44-.55-.94-.7-1.51-.16-.56-.23-1.13-.23-1.7 0-.83.16-1.63.47-2.39s.83-1.37 1.56-1.82l1.38 1.82z"></path><path d="m109.7 249.02c-.68.52-1.2 1.18-1.56 1.98s-.55 1.62-.55 2.47c0 1.04.2 1.98.58 2.82.39.84.92 1.56 1.6 2.16s1.47 1.06 2.38 1.39 1.89.49 2.93.49c.97 0 1.89-.16 2.76-.47s1.63-.76 2.29-1.35 1.18-1.31 1.56-2.16.57-1.81.57-2.89-.22-1.98-.65-2.78-1.04-1.47-1.82-2.03l1.59-2.11c.19.14.46.38.82.73s.71.81 1.07 1.38.67 1.26.94 2.07.4 1.74.4 2.8c0 1.46-.28 2.77-.83 3.94s-1.28 2.17-2.18 2.99-1.92 1.45-3.06 1.88-2.28.65-3.44.65c-1.42 0-2.73-.23-3.94-.7s-2.24-1.12-3.12-1.96-1.56-1.85-2.04-3.03-.73-2.48-.73-3.9c0-1.21.23-2.4.7-3.57s1.19-2.13 2.16-2.87l1.59 2.08z"></path><path d="m117.97 244.73c-.9 0-1.74-.17-2.52-.51s-1.46-.8-2.05-1.39-1.05-1.28-1.39-2.08-.51-1.65-.51-2.57.17-1.78.51-2.57c.34-.8.8-1.49 1.39-2.08s1.27-1.05 2.05-1.39 1.62-.51 2.52-.51 1.75.17 2.54.51 1.47.8 2.05 1.39 1.04 1.28 1.38 2.08.51 1.66.51 2.57-.17 1.78-.51 2.57c-.34.8-.8 1.49-1.38 2.08s-1.26 1.05-2.05 1.39-1.63.51-2.54.51zm0-2.5c.62 0 1.2-.09 1.73-.29.53-.19.98-.46 1.35-.81s.67-.77.88-1.27c.22-.5.32-1.07.32-1.69s-.11-1.19-.32-1.69c-.22-.5-.51-.93-.88-1.27-.37-.35-.82-.62-1.35-.81s-1.1-.29-1.73-.29-1.2.1-1.73.29-.98.46-1.35.81-.67.77-.88 1.27c-.22.5-.33 1.07-.33 1.69s.11 1.19.33 1.69.51.93.88 1.27c.37.35.82.62 1.35.81s1.1.29 1.73.29z"></path><path d="m104.47 228.5v-2.34h19.66v2.34z"></path><path d="m124.13 211.52v2.34h-1.9v.05c.66.29 1.19.81 1.6 1.53.41.73.61 1.57.61 2.52 0 .61-.09 1.18-.27 1.72s-.46 1.01-.85 1.42c-.38.41-.87.73-1.47.98s-1.3.36-2.12.36h-7.93v-2.34h7.28c.57 0 1.06-.08 1.47-.23.41-.16.74-.36.99-.62s.43-.56.55-.9c.11-.34.17-.69.17-1.05 0-.49-.08-.94-.23-1.35-.16-.42-.4-.78-.74-1.09s-.77-.55-1.29-.73c-.52-.17-1.14-.26-1.85-.26h-6.34v-2.34h12.32z"></path><path d="m111.81 207.99v-2.18h1.92v-.05c-.17-.05-.39-.19-.65-.4-.26-.22-.51-.49-.74-.83s-.43-.74-.6-1.2c-.16-.46-.25-.97-.25-1.52 0-.92.19-1.69.57-2.31s.95-1.14 1.72-1.53c-.76-.4-1.33-.96-1.72-1.69-.38-.73-.57-1.46-.57-2.21 0-.95.16-1.73.47-2.34s.72-1.08 1.23-1.43 1.09-.58 1.74-.72c.65-.13 1.32-.19 2.02-.19h7.18v2.34h-6.86c-.47 0-.92.03-1.35.09s-.81.19-1.14.38-.59.46-.79.81-.3.81-.3 1.38c0 1.13.35 1.93 1.04 2.42s1.59.73 2.68.73h6.73v2.34h-6.45c-.59 0-1.13.03-1.61.09s-.91.18-1.26.36c-.36.18-.63.44-.83.78s-.3.79-.3 1.37c0 .42.08.82.25 1.21s.41.73.74 1.03c.33.29.75.53 1.26.7s1.11.26 1.81.26h6.4v2.34h-12.32z"></path><path d="m111.81 185.84v-2.34h1.9v-.05c-.66-.29-1.19-.81-1.6-1.53-.41-.73-.61-1.57-.61-2.52 0-.59.09-1.16.27-1.7.18-.55.46-1.02.84-1.43s.87-.73 1.47-.98c.6-.24 1.3-.36 2.12-.36h7.93v2.34h-7.28c-.57 0-1.06.08-1.47.23-.41.16-.74.36-.99.62s-.43.56-.55.9c-.11.34-.17.69-.17 1.05 0 .49.08.94.23 1.35.16.42.4.78.74 1.09s.77.55 1.29.73c.52.17 1.14.26 1.85.26h6.34v2.34h-12.32z"></path></svg> 